<svg width="22" height="22" viewBox="0 0 22 22" fill="none" xmlns="http://www.w3.org/2000/svg">
<path d="M21.3654 2.32693H0.634605C0.284152 2.32693 0 2.61109 0 2.96154V6.55768H22V2.96154C22 2.61109 21.7158 2.32693 21.3654 2.32693ZM16.0769 5.71154H15.2308C14.8803 5.71154 14.5962 5.42739 14.5962 5.07694C14.5962 4.72648 14.8803 4.44233 15.2308 4.44233H16.0769C16.4274 4.44233 16.7115 4.72648 16.7115 5.07694C16.7115 5.42739 16.4274 5.71154 16.0769 5.71154ZM18.6154 5.71154H17.7693C17.4188 5.71154 17.1346 5.42739 17.1346 5.07694C17.1346 4.72648 17.4188 4.44233 17.7693 4.44233H18.6154C18.9659 4.44233 19.25 4.72648 19.25 5.07694C19.25 5.42739 18.9658 5.71154 18.6154 5.71154Z" fill="white"/>
<path d="M11 10.3654C9.48363 10.3654 8.25 11.599 8.25 13.1154C8.25 14.6317 9.48363 15.8654 11 15.8654C12.5164 15.8654 13.75 14.6317 13.75 13.1154C13.75 11.599 12.5164 10.3654 11 10.3654ZM11 14.4269C10.2768 14.4269 9.68847 13.8385 9.68847 13.1154C9.68847 12.3922 10.2768 11.8038 11 11.8038C11.7232 11.8038 12.3115 12.3922 12.3115 13.1154C12.3115 13.8385 11.7232 14.4269 11 14.4269Z" fill="white"/>
<path d="M1.90387 7.82693V10.5769C1.90387 13.0066 2.85004 15.2909 4.56806 17.0089C6.28608 18.7269 8.57034 19.6731 11 19.6731C13.4297 19.6731 15.7139 18.7269 17.432 17.0089C19.15 15.2909 20.0962 13.0066 20.0962 10.5769V7.82693H1.90387ZM11 17.1346C8.78381 17.1346 6.9808 15.3316 6.9808 13.1154C6.9808 10.8992 8.78381 9.09619 11 9.09619C13.2162 9.09619 15.0192 10.8992 15.0192 13.1154C15.0192 15.3316 13.2162 17.1346 11 17.1346Z" fill="white"/>
</svg>
