<svg width="24" height="24" viewBox="0 0 24 24" fill="none" xmlns="http://www.w3.org/2000/svg">
<path d="M23.3077 2.53846H0.692297C0.309984 2.53846 0 2.84844 0 3.23076V7.15382H24V3.23076C24 2.84844 23.69 2.53846 23.3077 2.53846ZM17.5385 6.23076H16.6154C16.233 6.23076 15.9231 5.92077 15.9231 5.53846C15.9231 5.15615 16.2331 4.84616 16.6154 4.84616H17.5385C17.9208 4.84616 18.2308 5.15615 18.2308 5.53846C18.2308 5.92077 17.9208 6.23076 17.5385 6.23076ZM20.3077 6.23076H19.3846C19.0023 6.23076 18.6923 5.92077 18.6923 5.53846C18.6923 5.15615 19.0023 4.84616 19.3846 4.84616H20.3077C20.6901 4.84616 21 5.15615 21 5.53846C21 5.92077 20.69 6.23076 20.3077 6.23076Z" fill="#E63838"/>
<path d="M12 11.3077C10.3458 11.3077 9 12.6534 9 14.3077C9 15.9619 10.3458 17.3077 12 17.3077C13.6542 17.3077 15 15.9619 15 14.3077C15 12.6534 13.6542 11.3077 12 11.3077ZM12 15.7384C11.211 15.7384 10.5692 15.0966 10.5692 14.3077C10.5692 13.5188 11.211 12.8769 12 12.8769C12.789 12.8769 13.4308 13.5188 13.4308 14.3077C13.4308 15.0966 12.789 15.7384 12 15.7384Z" fill="#E63838"/>
<path d="M2.07693 8.53848V11.5385C2.07693 14.189 3.10911 16.6809 4.98332 18.5551C6.85752 20.4293 9.34944 21.4615 12 21.4615C14.6505 21.4615 17.1425 20.4293 19.0167 18.5551C20.8909 16.6809 21.923 14.189 21.923 11.5385V8.53848H2.07693ZM12 18.6923C9.58232 18.6923 7.6154 16.7254 7.6154 14.3077C7.6154 11.89 9.58232 9.92312 12 9.92312C14.4177 9.92312 16.3846 11.89 16.3846 14.3077C16.3846 16.7254 14.4177 18.6923 12 18.6923Z" fill="#E63838"/>
</svg>
