<svg width="25" height="25" viewBox="0 0 25 25" fill="none" xmlns="http://www.w3.org/2000/svg">
<g clip-path="url(#clip0_1_37)">
<path d="M12.5 7.62939e-06C5.59687 7.62939e-06 0 5.59688 0 12.5C0 19.4031 5.59687 25 12.5 25C19.4031 25 25 19.4031 25 12.5C25 5.59688 19.4031 7.62939e-06 12.5 7.62939e-06ZM12.5 2.08334C13.075 2.08334 13.5417 2.55001 13.5417 3.12501C13.5417 3.70001 13.075 4.16668 12.5 4.16668C11.925 4.16668 11.4583 3.70001 11.4583 3.12501C11.4583 2.55001 11.925 2.08334 12.5 2.08334ZM3.125 13.5417C2.55 13.5417 2.08333 13.075 2.08333 12.5C2.08333 11.925 2.55 11.4583 3.125 11.4583C3.7 11.4583 4.16667 11.925 4.16667 12.5C4.16667 13.075 3.7 13.5417 3.125 13.5417ZM6.60729 19.8656C6.2 20.2729 5.54062 20.2729 5.13437 19.8656C4.72708 19.4583 4.72708 18.799 5.13437 18.3927C5.54167 17.9854 6.20104 17.9854 6.60729 18.3927C7.01458 18.799 7.01458 19.4594 6.60729 19.8656ZM6.60729 6.6073C6.2 7.01459 5.54062 7.01459 5.13437 6.6073C4.72708 6.20001 4.72708 5.54063 5.13437 5.13438C5.54167 4.72709 6.20104 4.72709 6.60729 5.13438C7.01458 5.54063 7.01458 6.20105 6.60729 6.6073ZM11.0271 13.9729C10.2135 13.1594 10.2135 11.8406 11.0271 11.0271C11.5385 10.5156 15.6906 7.52709 18.7062 5.37605C19.3115 4.9448 20.0562 5.68959 19.624 6.29376C17.4729 9.30938 14.4844 13.4615 13.9729 13.9729C13.1594 14.7865 11.8406 14.7865 11.0271 13.9729ZM19.8656 19.8656C19.4583 20.2729 18.799 20.2729 18.3927 19.8656C17.9865 19.4583 17.9854 18.799 18.3927 18.3927C18.8 17.9854 19.4594 17.9854 19.8656 18.3927C20.2729 18.799 20.2729 19.4594 19.8656 19.8656ZM21.875 13.5417C21.3 13.5417 20.8333 13.075 20.8333 12.5C20.8333 11.925 21.3 11.4583 21.875 11.4583C22.45 11.4583 22.9167 11.925 22.9167 12.5C22.9167 13.075 22.45 13.5417 21.875 13.5417Z" fill="#E63838"/>
</g>
<defs>
<clipPath id="clip0_1_37">
<rect width="25" height="25" fill="white"/>
</clipPath>
</defs>
</svg>
