<svg width="24" height="24" viewBox="0 0 24 24" fill="none" xmlns="http://www.w3.org/2000/svg">
<g clip-path="url(#clip0_1_17)">
<path d="M0.581695 6.93836L11.5008 11.8916C11.8195 12.0365 12.18 12.0365 12.4987 11.8916L23.4178 6.93836C24.1936 6.58633 24.1936 5.41399 23.4178 5.06195L12.4992 0.108204C12.3426 0.0366215 12.1724 -0.000427246 12.0002 -0.000427246C11.828 -0.000427246 11.6578 0.0366215 11.5012 0.108204L0.581695 5.06149C-0.194086 5.41352 -0.194086 6.58633 0.581695 6.93836ZM23.4183 11.0765L20.6953 9.84227L13.1184 13.2768C12.764 13.4376 12.3876 13.5191 12 13.5191C11.6123 13.5191 11.2364 13.4376 10.8815 13.2768L3.30513 9.84227L0.581695 11.0765C-0.194086 11.4281 -0.194086 12.5999 0.581695 12.9515L11.5008 17.901C11.8195 18.0454 12.18 18.0454 12.4987 17.901L23.4183 12.9515C24.194 12.5999 24.194 11.4281 23.4183 11.0765ZM23.4183 17.0671L20.7056 15.8376L13.1184 19.2768C12.764 19.4376 12.3876 19.5191 12 19.5191C11.6123 19.5191 11.2364 19.4376 10.8815 19.2768L3.29482 15.8376L0.581695 17.0671C-0.194086 17.4187 -0.194086 18.5906 0.581695 18.9421L11.5008 23.8916C11.8195 24.036 12.18 24.036 12.4987 23.8916L23.4183 18.9421C24.194 18.5906 24.194 17.4187 23.4183 17.0671Z" fill="#E63838"/>
</g>
<defs>
<clipPath id="clip0_1_17">
<rect width="24" height="24" fill="white"/>
</clipPath>
</defs>
</svg>
