<svg width="19" height="21" viewBox="0 0 19 21" fill="none" xmlns="http://www.w3.org/2000/svg">
<path d="M9.50002 2.3255C8.84452 2.3255 8.31252 2.87229 8.31252 3.54602V4.11178C6.26462 4.65433 4.75002 6.56054 4.75002 8.83493V13.717L3.16669 15.3444V16.158H8.13007C7.99066 16.4053 7.91707 16.6859 7.91669 16.9717C7.91669 17.4033 8.0835 17.8173 8.38043 18.1224C8.67737 18.4276 9.08009 18.5991 9.50002 18.5991C9.91995 18.5991 10.3227 18.4276 10.6196 18.1224C10.9165 17.8173 11.0834 17.4033 11.0834 16.9717C11.0825 16.6858 11.0084 16.4052 10.8684 16.158H15.8334V15.3444L14.25 13.717V8.83493C14.25 6.56054 12.7354 4.65433 10.6875 4.11178V3.54602C10.6875 2.87229 10.1555 2.3255 9.50002 2.3255ZM9.50002 5.58022C11.2464 5.58022 12.6667 7.03996 12.6667 8.83493V13.717V14.3908L12.8028 14.5307H6.19729L6.33335 14.3908V13.717V8.83493C6.33335 7.03996 7.7536 5.58022 9.50002 5.58022Z" fill="#2E2E2E"/>
</svg>
