<svg width="20" height="20" viewBox="0 0 20 20" fill="none" xmlns="http://www.w3.org/2000/svg">
<path d="M8.34257 0.00400746C7.00711 0.00147926 5.69062 0.320318 4.50418 0.933626C3.31774 1.54693 2.29616 2.43672 1.52561 3.52791C0.75507 4.6191 0.258173 5.87969 0.0768434 7.20332C-0.104486 8.52696 0.0350714 9.8748 0.483742 11.1332C0.932413 12.3915 1.67703 13.5234 2.65479 14.4335C3.63254 15.3435 4.81473 16.0049 6.10164 16.3619C7.38855 16.7189 8.74241 16.7611 10.049 16.4847C11.3556 16.2084 12.5766 15.6218 13.609 14.7743L18.5785 19.7538C18.6558 19.8311 18.7476 19.8925 18.8487 19.9344C18.9497 19.9763 19.058 19.9978 19.1674 19.9978C19.2768 19.9978 19.3851 19.9763 19.4861 19.9344C19.5872 19.8925 19.679 19.8311 19.7563 19.7538C19.8337 19.6764 19.895 19.5845 19.9369 19.4835C19.9787 19.3824 20.0003 19.274 20.0003 19.1646C20.0003 19.0552 19.9787 18.9468 19.9369 18.8457C19.895 18.7446 19.8337 18.6528 19.7563 18.5754L14.7789 13.604C15.7796 12.3848 16.4134 10.9062 16.6063 9.34047C16.7992 7.77476 16.5433 6.18645 15.8684 4.76066C15.1935 3.33488 14.1274 2.13035 12.7945 1.28747C11.4615 0.4446 9.9165 -0.00190422 8.33957 6.10424e-06L8.34257 0.00400746ZM8.34257 1.66949C9.6602 1.66949 10.9482 2.06036 12.0438 2.79267C13.1394 3.52498 13.9933 4.56584 14.4976 5.78364C15.0019 7.00144 15.1339 8.34149 14.8769 9.63434C14.6199 10.9272 13.9855 12.1148 13.0539 13.0469C12.1222 13.9791 10.9352 14.6139 9.64293 14.8712C8.35064 15.1285 7.01111 14.9966 5.79373 14.4923C4.57634 13.988 3.53576 13.1339 2.80358 12.038C2.0714 10.9421 1.6805 9.6536 1.6803 8.33544C1.67872 7.45974 1.84997 6.59235 2.18422 5.78301C2.51847 4.97366 3.00915 4.2383 3.62811 3.61908C4.24708 2.99987 4.98215 2.509 5.79116 2.17461C6.60018 1.84023 7.46723 1.66891 8.34257 1.67049V1.66949Z" fill="#9A9A9A"/>
</svg>
