<svg width="22" height="18" viewBox="0 0 22 18" fill="none" xmlns="http://www.w3.org/2000/svg">
<g clip-path="url(#clip0_1_46)">
<path d="M13.2 11H8.8C8.19259 11 7.7 11.4926 7.7 12.1V16.5C7.7 17.1074 8.19259 17.6 8.8 17.6H13.2C13.8074 17.6 14.3 17.1074 14.3 16.5V12.1C14.3 11.4926 13.8074 11 13.2 11ZM6.6 1.1C6.6 0.492594 6.10741 0 5.5 0H1.1C0.492594 0 0 0.492594 0 1.1V5.5C0 6.10741 0.492594 6.6 1.1 6.6H4.39038L6.90525 11.0014C7.28681 10.3462 7.98875 9.9 8.8 9.9H8.80963L6.6 6.03316V4.4H14.3V2.2H6.6V1.1ZM20.9 0H16.5C15.8926 0 15.4 0.492594 15.4 1.1V5.5C15.4 6.10741 15.8926 6.6 16.5 6.6H20.9C21.5074 6.6 22 6.10741 22 5.5V1.1C22 0.492594 21.5074 0 20.9 0Z" fill="white"/>
</g>
<defs>
<clipPath id="clip0_1_46">
<rect width="22" height="17.6" fill="white"/>
</clipPath>
</defs>
</svg>
