<svg width="48" height="22" viewBox="0 0 48 22" fill="none" xmlns="http://www.w3.org/2000/svg">
<g filter="url(#filter0_d_1_191)">
<path fill-rule="evenodd" clip-rule="evenodd" d="M6.14867 6.03983C6.48869 6.08207 6.53553 6.1298 6.59046 6.49118C6.62421 6.71356 6.77741 7.10554 6.93091 7.36231C7.19551 7.8051 7.26495 7.82884 8.28386 7.82413C9.54021 7.81812 10.183 7.57765 10.4731 7.00523C10.6002 6.75445 10.7565 6.60625 10.9043 6.59676C11.0317 6.5885 11.793 6.55962 12.5959 6.53255C13.3989 6.50528 14.1232 6.42529 14.2053 6.35469C14.3987 6.1882 18.9237 5.96004 19.0531 6.11008C19.1073 6.17286 19.1747 6.15092 19.2029 6.06141C19.2617 5.87499 19.7752 5.7356 20.3009 5.76325C21.202 5.81042 21.9139 5.77706 22.0237 5.68242C22.0897 5.62546 22.1561 5.6577 22.1715 5.7539C22.1868 5.8502 22.1273 5.94045 22.0391 5.95445C21.951 5.96855 21.9201 6.0279 21.9706 6.08641C22.0212 6.14503 24.0838 6.14554 26.5545 6.08773L31.0465 5.98258L31.7326 6.62495C32.3689 7.22053 32.5279 7.28726 33.9203 7.54368C35.5025 7.83493 36.0948 7.84352 36.4009 7.57946C36.6059 7.40268 42.6661 8.27821 42.8619 8.51286C42.9288 8.5932 42.9111 8.95595 42.8226 9.31884C42.734 9.68193 42.58 10.6347 42.4803 11.4361C42.3807 12.2375 42.224 12.9244 42.1321 12.9625C41.9309 13.0458 42.0771 13.1036 37.66 11.1941C34.2039 9.70006 32.246 9.00872 32.0211 9.20275C31.7243 9.45867 31.835 10.5116 32.2694 11.568C32.5513 12.2532 32.691 12.8208 32.6219 13.0003C32.4684 13.3989 31.948 13.6417 31.3763 13.5815C30.9431 13.5359 30.8999 13.4976 30.7968 13.0697C30.6645 12.521 29.8503 10.6806 29.6233 10.4173C29.5304 10.3096 29.3735 10.3112 29.2462 10.4209C29.1263 10.5244 28.9642 10.5888 28.8859 10.5641C28.8077 10.5395 28.882 10.4396 29.0509 10.3423C29.2662 10.2181 29.3455 10.0412 29.3161 9.75034C29.2642 9.23712 28.9547 9.1782 28.7741 9.64734C28.7022 9.83373 28.5381 10.0377 28.4095 10.1005C28.2368 10.1848 28.2369 10.1559 28.4094 9.99026C28.7355 9.6773 28.4972 9.1865 27.9884 9.12339C27.2207 9.02802 26.9553 9.1688 26.9826 9.65696C26.9963 9.90036 27.0904 10.2043 27.1917 10.3324C27.3611 10.5468 27.3503 10.5522 27.0563 10.4002C26.7218 10.2274 26.4232 10.3404 26.6179 10.5662C26.68 10.6382 26.674 10.6929 26.6045 10.6878C26.535 10.6828 26.422 10.4578 26.3534 10.1879C26.1617 9.43432 25.931 9.63118 25.5787 10.8489C25.0787 12.5767 24.1233 14.0912 22.6664 15.4653L21.4514 16.6112L21.1794 16.2959C21.0298 16.1225 20.6959 15.627 20.4375 15.1948L19.9673 14.409L20.8155 13.6462C21.9706 12.6074 22.9831 10.9526 23.1164 9.8857L23.2152 9.09621L22.3194 9.02178C21.8268 8.98069 21.2086 9.03621 20.9458 9.14511C20.6484 9.26849 20.1899 9.27029 19.7307 9.14985C19.3252 9.04347 18.5792 8.97 18.0732 8.98638C16.6471 9.03265 14.3997 8.88968 14.2747 8.74481C14.2128 8.67304 13.6038 8.63114 12.9213 8.65163C12.2388 8.67224 11.66 8.66538 11.635 8.6364C11.5922 8.58676 11.9093 8.55359 13.1171 8.48133C13.3987 8.46447 13.6103 8.42866 13.5871 8.40171C13.5638 8.37475 13.0197 8.37676 12.3777 8.40614C11.7359 8.43563 11.3018 8.48845 11.4134 8.52361C11.7896 8.64234 11.4703 8.71741 10.5298 8.73106C10.0152 8.73872 9.56246 8.66639 9.52391 8.57038C9.46473 8.4232 8.06264 8.39784 7.29994 8.5302C6.77542 8.62125 7.22647 8.65643 8.29164 8.60771C8.91924 8.57895 9.42937 8.60021 9.42535 8.6548C9.41179 8.83982 5.97096 8.88186 5.81326 8.69902C5.72724 8.59929 5.54784 8.5096 5.41459 8.49977C5.10543 8.47695 5.06421 7.94548 5.36324 7.83779C5.66484 7.72945 5.82144 7.19345 5.71851 6.62199C5.61103 6.02507 5.64631 5.9774 6.14867 6.03983ZM6.25893 7.62618C6.45981 7.65994 6.56531 7.60694 6.57559 7.46763C6.58589 7.32811 6.49069 7.24158 6.28981 7.20783C6.08892 7.17407 5.98343 7.22707 5.97315 7.36638C5.96285 7.5059 6.05804 7.59242 6.25893 7.62618ZM11.8944 7.6882C13.0193 7.70414 13.7037 7.62868 13.5933 7.50065C13.4509 7.33556 11.4598 7.36031 11.268 7.52965C11.1707 7.61553 11.4316 7.68158 11.8944 7.6882ZM15.6291 7.47656C15.8474 7.50372 16.0766 7.48226 16.1384 7.42898C16.2002 7.3757 16.072 7.30998 15.8537 7.28283C15.6354 7.25567 15.4061 7.27713 15.3444 7.33041C15.2826 7.38369 15.4108 7.44941 15.6291 7.47656ZM17.4159 7.39099C17.4389 7.41761 17.7199 7.41122 18.0402 7.37682L18.6228 7.31424L18.0912 7.2484C17.6171 7.18964 17.3 7.25656 17.4159 7.39099ZM28.2693 10.5291L28.7012 10.5972L28.264 10.6012C28.0236 10.6034 27.8118 10.5878 27.7934 10.5665C27.7159 10.4766 27.8635 10.465 28.2693 10.5291Z" fill="url(#paint0_linear_1_191)"/>
</g>
<defs>
<filter id="filter0_d_1_191" x="0.159546" y="0.654266" width="47.7429" height="20.957" filterUnits="userSpaceOnUse" color-interpolation-filters="sRGB">
<feFlood flood-opacity="0" result="BackgroundImageFix"/>
<feColorMatrix in="SourceAlpha" type="matrix" values="0 0 0 0 0 0 0 0 0 0 0 0 0 0 0 0 0 0 127 0" result="hardAlpha"/>
<feOffset/>
<feGaussianBlur stdDeviation="2.5"/>
<feComposite in2="hardAlpha" operator="out"/>
<feColorMatrix type="matrix" values="0 0 0 0 0 0 0 0 0 0 0 0 0 0 0 0 0 0 0.25 0"/>
<feBlend mode="normal" in2="BackgroundImageFix" result="effect1_dropShadow_1_191"/>
<feBlend mode="normal" in="SourceGraphic" in2="effect1_dropShadow_1_191" result="shape"/>
</filter>
<linearGradient id="paint0_linear_1_191" x1="15.0469" y1="-1.97815" x2="33.9915" y2="19.9861" gradientUnits="userSpaceOnUse">
<stop stop-color="#E67D37"/>
<stop offset="1" stop-color="#FC0B04"/>
</linearGradient>
</defs>
</svg>
